<svg width="40" height="40" viewBox="0 0 40 40" fill="none" xmlns="http://www.w3.org/2000/svg">
<path d="M22.8833 35C22.5902 35.5051 22.1697 35.9244 21.6636 36.2159C21.1576 36.5073 20.5839 36.6607 19.9999 36.6607C19.416 36.6607 18.8422 36.5073 18.3362 36.2159C17.8302 35.9244 17.4096 35.5051 17.1166 35M36.6666 28.3333H3.33325C4.65933 28.3333 5.9311 27.8065 6.86879 26.8688C7.80647 25.9312 8.33325 24.6594 8.33325 23.3333V15C8.33325 11.9058 9.56241 8.93832 11.7503 6.7504C13.9383 4.56248 16.9057 3.33331 19.9999 3.33331C23.0941 3.33331 26.0616 4.56248 28.2495 6.7504C30.4374 8.93832 31.6666 11.9058 31.6666 15V23.3333C31.6666 24.6594 32.1934 25.9312 33.1311 26.8688C34.0687 27.8065 35.3405 28.3333 36.6666 28.3333Z" stroke="#9813AC" stroke-width="3" stroke-linecap="round" stroke-linejoin="round"/>
</svg>
