<svg width="40" height="40" viewBox="0 0 40 40" fill="none" xmlns="http://www.w3.org/2000/svg">
<path d="M15.0002 18.3333C18.6821 18.3333 21.6668 15.3486 21.6668 11.6667C21.6668 7.98477 18.6821 5 15.0002 5C11.3183 5 8.3335 7.98477 8.3335 11.6667C8.3335 15.3486 11.3183 18.3333 15.0002 18.3333Z" stroke="#938EFF" stroke-width="3.5" stroke-linecap="round" stroke-linejoin="round"/>
<path d="M3.3335 35V28.3333C3.3335 26.4923 4.82588 25 6.66683 25H23.3335C25.1745 25 26.6668 26.4923 26.6668 28.3333V35" stroke="#938EFF" stroke-width="3.5" stroke-linecap="round" stroke-linejoin="round"/>
<path d="M26.6665 5C28.1005 5.36717 29.3715 6.20117 30.2792 7.37052C31.1868 8.53987 31.6795 9.97805 31.6795 11.4583C31.6795 12.9386 31.1868 14.3768 30.2792 15.5461C29.3715 16.7155 28.1005 17.5495 26.6665 17.9167" stroke="#938EFF" stroke-width="3.5" stroke-linecap="round" stroke-linejoin="round"/>
<path d="M31.6665 25H33.3332C35.1742 25 36.6665 26.4923 36.6665 28.3333V35" stroke="#938EFF" stroke-width="3.5" stroke-linecap="round" stroke-linejoin="round"/>
</svg>
