<svg width="40" height="40" viewBox="0 0 40 40" fill="none" xmlns="http://www.w3.org/2000/svg">
<path d="M14.9999 18.3333C18.6818 18.3333 21.6666 15.3486 21.6666 11.6667C21.6666 7.98477 18.6818 5 14.9999 5C11.318 5 8.33325 7.98477 8.33325 11.6667C8.33325 15.3486 11.318 18.3333 14.9999 18.3333Z" stroke="#746A8E" stroke-width="3.5" stroke-linecap="round" stroke-linejoin="round"/>
<path d="M3.33325 35V28.3333C3.33325 26.4923 4.82564 25 6.66659 25H23.3333C25.1743 25 26.6666 26.4923 26.6666 28.3333V35" stroke="#746A8E" stroke-width="3.5" stroke-linecap="round" stroke-linejoin="round"/>
<path d="M26.6667 5C28.1007 5.36717 29.3717 6.20117 30.2794 7.37052C31.1871 8.53987 31.6797 9.97805 31.6797 11.4583C31.6797 12.9386 31.1871 14.3768 30.2794 15.5461C29.3717 16.7155 28.1007 17.5495 26.6667 17.9167" stroke="#746A8E" stroke-width="3.5" stroke-linecap="round" stroke-linejoin="round"/>
<path d="M31.6667 25H33.3334C35.1744 25 36.6668 26.4923 36.6668 28.3333V35" stroke="#746A8E" stroke-width="3.5" stroke-linecap="round" stroke-linejoin="round"/>
</svg>
